<svg x="0" y="0" width="700" height="350" viewBox="0 0 700 350" xmlns="http://www.w3.org/2000/svg" xmlns:xlink="http://www.w3.org/1999/xlink" xmlns:fi="http://pattern.flaticon.com/"><rect x="0px" y="0px" width="100%" height="100%" opacity="1" fill="none"/><defs><g transform="matrix(0.1171877309679985 0 0 0.1171877309679985 307 131)" id="L1_23"><path d="M465.022,475.648c-36.182-79.325-57.784-193.614-57.784-305.721c0-45.171-17.339-87.768-48.821-119.942    C326.877,17.751,285.089,0,240.75,0s-86.127,17.751-117.667,49.985c-31.483,32.173-48.82,74.771-48.82,119.942    c0,0.092,0.001,0.184,0.004,0.275c2.37,85.968-7.218,128.263-15.677,165.579c-9.423,41.57-17.561,77.471-8.718,157.113    c0.397,3.579,2.689,6.668,5.999,8.086c17.316,7.416,32.348,11.02,45.954,11.02c16.724,0,28.661-5.253,40.204-10.332    c9.13-4.018,17.754-7.812,28.743-8.829c0.813-0.076,1.674-0.114,2.561-0.114c9.645,0,21.571,4.304,34.196,8.859    c14.149,5.105,28.78,10.385,42.75,10.384c1.679-0.001,3.338-0.078,4.93-0.231c12.547-1.204,24.329-6.278,35.722-11.185    c10.87-4.682,21.139-9.103,30.224-9.293c22.762-0.457,36.868,4.501,50.46,9.297c10.796,3.809,20.992,7.407,33.591,7.407    c0.003,0,0.006,0,0.008,0c16.304-0.002,33.545-6.053,55.901-19.621C465.445,485.712,467.125,480.258,465.022,475.648z     M405.211,487.97c-0.003,0-0.004,0-0.006,0c-9.175,0-17.016-2.767-26.939-6.268c-13.81-4.872-31.105-10.967-57.527-10.433    c-12.99,0.271-25.56,5.685-37.716,10.92c-10.438,4.495-20.297,8.74-29.726,9.646c-0.96,0.092-1.976,0.139-3.02,0.139    c-10.473,0.001-23.431-4.674-35.962-9.196c-13.687-4.938-27.84-10.046-40.982-10.046c-1.498,0-2.979,0.067-4.403,0.199    c-14.224,1.316-25.236,6.162-34.952,10.437c-10.534,4.636-19.632,8.639-32.152,8.639c-9.508,0-20.253-2.364-32.715-7.211    c-7.434-72.202,0.188-105.828,8.976-144.596c8.715-38.446,18.593-82.025,16.168-170.41    C94.327,87.179,160.017,19.991,240.75,19.991c80.778,0,146.497,67.26,146.497,149.935c0,55.748,5.259,113.456,15.207,166.886    c9.725,52.225,23.402,98.879,40.698,138.843C427.969,484.03,415.775,487.968,405.211,487.97z"/><path d="M171.739,125.891c-22.047,0-39.983,17.936-39.983,39.983s17.936,39.983,39.983,39.983s39.983-17.936,39.983-39.983    C211.722,143.828,193.785,125.891,171.739,125.891z M171.739,185.865c-11.023,0-19.991-8.968-19.991-19.991    c0-11.023,8.968-19.991,19.991-19.991c11.023,0,19.991,8.968,19.991,19.991C191.73,176.898,182.762,185.865,171.739,185.865z"/><path d="M282.691,125.891c-22.047,0-39.983,17.936-39.983,39.983s17.936,39.983,39.983,39.983s39.983-17.936,39.983-39.983    C322.674,143.828,304.738,125.891,282.691,125.891z M282.691,185.865c-11.023,0-19.991-8.968-19.991-19.991    c0-11.023,8.968-19.991,19.991-19.991s19.991,8.968,19.991,19.991C302.683,176.898,293.715,185.865,282.691,185.865z"/><path d="M156.628,385.027c-5.49-0.546-10.388,3.47-10.931,8.963c-1.986,20.085-5.628,36.084-10.531,46.265    c-2.395,4.974-0.304,10.947,4.67,13.342c1.398,0.674,2.875,0.992,4.329,0.992c3.72,0,7.292-2.085,9.014-5.662    c5.99-12.441,10.167-30.262,12.413-52.969C166.135,390.465,162.122,385.57,156.628,385.027z"/><path d="M157.167,357.634c-5.518,0-9.992,4.47-9.997,9.987l-0.001,0.291c-0.045,5.521,4.394,10.032,9.915,10.077    c0.027,0,0.055,0,0.082,0c5.483,0,9.95-4.422,9.994-9.915l0.002-0.449C167.159,362.108,162.685,357.635,157.167,357.634z"/><path d="M372.971,431.041c-21.082-32.081-22.335-102.734-22.348-103.598c-0.074-5.52-4.6-9.93-10.13-9.86    c-5.52,0.074-9.935,4.609-9.86,10.13c0.042,3.14,1.318,77.311,25.631,114.308c1.92,2.922,5.11,4.507,8.363,4.507    c1.883,0,3.788-0.532,5.48-1.643C374.72,441.853,376.002,435.656,372.971,431.041z"/></g><g transform="matrix(0.13135051727294922 0 0 0.13135051727294922 160 72)" id="L1_24"><path d="M448.947,218.474c-0.924-1.168-23.057-28.933-61-56.81c-50.707-37.253-105.879-56.944-159.551-56.944    c-53.673,0-108.845,19.691-159.551,56.944c-37.944,27.876-60.077,55.642-61,56.81L0,228.396l7.845,9.923    c0.923,1.168,23.056,28.934,61,56.811c50.707,37.252,105.878,56.943,159.551,56.943c53.672,0,108.844-19.691,159.551-56.943    c37.943-27.877,60.076-55.643,61-56.811l7.846-9.923L448.947,218.474z M368.273,269.874    c-31.354,22.9-81.072,50.199-139.877,50.199s-108.524-27.299-139.877-50.199c-21.516-15.715-37.641-31.609-46.834-41.478    c9.197-9.872,25.32-25.764,46.833-41.478c31.354-22.901,81.072-50.2,139.877-50.2c58.804,0,108.525,27.299,139.876,50.2    c21.516,15.715,37.641,31.609,46.834,41.477C405.91,238.268,389.785,254.161,368.273,269.874z"/><path d="M228.396,160.728c-16.416,0-31.465,5.849-43.183,15.572c9.273,2.715,16.049,11.279,16.049,21.431    c0,12.334-9.999,22.333-22.333,22.333c-6.482,0-12.316-2.764-16.396-7.174c-1.168,4.982-1.807,10.169-1.807,15.507    c0,37.373,30.297,67.669,67.67,67.669c37.372,0,67.668-30.296,67.668-67.669S265.77,160.728,228.396,160.728z"/></g><g transform="matrix(0.14116518199443817 0 0 0.14116518199443817 79 293)" id="L1_25"><path d="M133.822,384.2c-33.836-24.953-54.037-64.915-54.037-106.898V147.731c0-3.798,0.162-7.633,0.482-11.396   c0.351-4.127-2.711-7.757-6.838-8.108c-4.123-0.347-7.757,2.711-8.108,6.838c-0.355,4.184-0.536,8.446-0.536,12.666v129.571   c0,23.526,5.669,46.938,16.395,67.704c10.375,20.087,25.5,37.815,43.739,51.266c1.34,0.988,2.899,1.464,4.446,1.464   c2.301,0,4.572-1.055,6.042-3.049C137.865,391.354,137.156,386.659,133.822,384.2z"/><path d="M168.819,402.675c-4.619-1.61-9.197-3.499-13.61-5.615c-3.734-1.791-8.215-0.215-10.005,3.521   c-1.791,3.735-0.215,8.215,3.52,10.005c4.915,2.356,10.014,4.46,15.158,6.253c0.817,0.285,1.65,0.42,2.469,0.42   c3.102,0,6.003-1.939,7.082-5.033C174.795,408.315,172.73,404.039,168.819,402.675z"/><path d="M352.749,243.219c-4.143,0-7.5,3.358-7.5,7.5v26.584c0,73.188-59.543,132.731-132.732,132.731   c-5.179,0-10.395-0.301-15.502-0.895c-4.12-0.479-7.838,2.469-8.316,6.584c-0.479,4.115,2.469,7.838,6.583,8.316   c5.681,0.661,11.479,0.995,17.235,0.995c81.459,0,147.731-66.272,147.731-147.731v-26.584   C360.249,246.576,356.891,243.219,352.749,243.219z"/><path d="M212.517,0c-31.895,0-62.263,10.003-87.824,28.928C99.64,47.478,81.373,72.889,71.867,102.417   c-1.27,3.943,0.898,8.168,4.841,9.438c3.944,1.268,8.168-0.898,9.438-4.841c8.54-26.525,24.955-49.358,47.473-66.03   C156.577,23.985,183.86,15,212.517,15c73.188,0,132.731,59.543,132.731,132.731v72.987c0,4.142,3.357,7.5,7.5,7.5   s7.5-3.358,7.5-7.5v-72.987C360.249,66.272,293.976,0,212.517,0z"/><path d="M111.172,318.746c-3.715,1.833-5.24,6.33-3.408,10.044c9.504,19.263,24.13,35.549,42.296,47.096   c18.678,11.873,40.275,18.149,62.457,18.149c16.784,0,32.996-3.504,48.187-10.415c3.771-1.715,5.437-6.162,3.722-9.932   c-1.716-3.77-6.162-5.438-9.933-3.721c-13.227,6.017-27.35,9.068-41.976,9.068c-19.327,0-38.142-5.466-54.411-15.808   c-15.846-10.073-28.603-24.276-36.89-41.073C119.384,318.439,114.885,316.913,111.172,318.746z"/><path d="M284.635,366.78c1.761,0,3.529-0.616,4.954-1.872c25.204-22.199,39.659-54.13,39.659-87.605V147.732   c0-24.963-7.801-48.792-22.559-68.909c-2.449-3.34-7.142-4.061-10.483-1.611c-3.34,2.45-4.061,7.144-1.61,10.484   c12.856,17.526,19.652,38.286,19.652,60.036v129.571c0,29.169-12.602,56.997-34.573,76.349c-3.108,2.738-3.409,7.477-0.671,10.585   C280.487,365.92,282.556,366.78,284.635,366.78z"/><path d="M270.318,64.059c1.304,0.903,2.792,1.337,4.266,1.337c2.377,0,4.715-1.127,6.171-3.228   c2.359-3.405,1.513-8.077-1.892-10.437c-5.678-3.935-11.733-7.382-18-10.244c-3.771-1.721-8.217-0.061-9.938,3.706   c-1.721,3.768-0.062,8.217,3.706,9.938C260.091,57.625,265.369,60.628,270.318,64.059z"/><path d="M232.047,32.634C225.635,31.55,219.064,31,212.517,31C148.152,31,95.786,83.366,95.786,147.732v125.987   c0,4.142,3.358,7.5,7.5,7.5s7.5-3.358,7.5-7.5V147.732C110.786,91.637,156.423,46,212.517,46c5.711,0,11.44,0.479,17.027,1.424   c4.096,0.69,7.955-2.061,8.646-6.144C238.882,37.196,236.131,33.325,232.047,32.634z"/><path d="M141.452,99.821c-2.32,3.431-1.419,8.094,2.012,10.414c3.431,2.319,8.094,1.419,10.414-2.012   C167.097,88.672,189.018,77,212.517,77c39.001,0,70.731,31.73,70.731,70.732v83.987c0,4.142,3.357,7.5,7.5,7.5s7.5-3.358,7.5-7.5   v-83.987c0-47.273-38.459-85.732-85.731-85.732C184.031,62,157.465,76.139,141.452,99.821z"/><path d="M134.286,173.218c4.142,0,7.5-3.358,7.5-7.5v-17.986c0-4.142-3.358-7.5-7.5-7.5s-7.5,3.358-7.5,7.5v17.986   C126.786,169.86,130.144,173.218,134.286,173.218z"/><path d="M126.786,277.303c0,31.025,16.878,59.725,44.048,74.901c1.158,0.647,2.412,0.954,3.65,0.954   c2.629,0,5.182-1.385,6.555-3.844c2.02-3.616,0.726-8.185-2.891-10.205c-22.429-12.528-36.362-36.21-36.362-61.805v-81.584   c0-4.142-3.358-7.5-7.5-7.5s-7.5,3.358-7.5,7.5V277.303z"/><path d="M298.249,277.303v-13.584c0-4.142-3.357-7.5-7.5-7.5s-7.5,3.358-7.5,7.5v13.584c0,39.001-31.73,70.732-70.731,70.732   c-5.698,0-11.369-0.682-16.853-2.028c-4.025-0.987-8.084,1.474-9.071,5.497s1.474,8.084,5.497,9.071   c6.653,1.632,13.526,2.46,20.427,2.46C259.79,363.034,298.249,324.575,298.249,277.303z"/><path d="M267.249,148.524c0-30.05-24.079-54.953-53.677-55.514c-14.822-0.28-28.786,5.283-39.369,15.668   c-10.587,10.388-16.417,24.258-16.417,39.054v129.571c0,4.142,3.358,7.5,7.5,7.5s7.5-3.358,7.5-7.5V147.732   c0-10.736,4.234-20.803,11.923-28.347c7.685-7.541,17.873-11.576,28.578-11.377c21.483,0.407,38.962,18.583,38.962,40.517v71.194   c0,4.142,3.357,7.5,7.5,7.5s7.5-3.358,7.5-7.5V148.524z"/><path d="M188.786,285.987c0,21.632,17.599,39.232,39.231,39.232c21.632,0,39.231-17.599,39.231-39.232v-36.269   c0-4.142-3.357-7.5-7.5-7.5s-7.5,3.358-7.5,7.5v36.269c0,13.361-10.87,24.232-24.231,24.232s-24.231-10.87-24.231-24.232v-64.268   c0-4.142-3.358-7.5-7.5-7.5s-7.5,3.358-7.5,7.5V285.987z"/><path d="M228.749,290.603c4.143,0,7.5-3.358,7.5-7.5v-134.9c0-12.932-9.902-23.55-22.545-24.174   c-6.567-0.323-12.787,1.991-17.541,6.516c-4.688,4.463-7.377,10.727-7.377,17.187v41.987c0,4.142,3.358,7.5,7.5,7.5   s7.5-3.358,7.5-7.5v-41.987c0-2.407,0.966-4.653,2.72-6.322c1.75-1.666,4.034-2.518,6.46-2.399   c4.567,0.225,8.283,4.349,8.283,9.192v134.9C221.249,287.245,224.606,290.603,228.749,290.603z"/></g><g transform="matrix(0.1530866026878357 0 0 0.1530866026878357 244 277)" id="L1_27"><circle cx="108" cy="76" r="60"/><path d="M371.726,234.221V205.21c0-32.539-26.473-59.011-59.012-59.011s-59.012,26.472-59.012,59.011v29.011h-20.209v140.836   h158.441V234.221H371.726z M341.726,234.221h-58.023V205.21c0-15.997,13.015-29.011,29.012-29.011s29.012,13.014,29.012,29.011   V234.221z"/><path d="M108.75,166.878C48.689,166.878,0,215.567,0,275.628h203.494v-53.366C184.838,189.208,149.412,166.878,108.75,166.878z"/></g></defs><g fi:class="KUsePattern"><pattern id="pattern_L1_23" width="350" height="350" patternUnits="userSpaceOnUse"><use xlink:href="#L1_23" x="-350" y="-350"/><use xlink:href="#L1_23" x="0" y="-350"/><use xlink:href="#L1_23" x="350" y="-350"/><use xlink:href="#L1_23" x="-350" y="0"/><use xlink:href="#L1_23" x="0" y="0"/><use xlink:href="#L1_23" x="350" y="0"/><use xlink:href="#L1_23" x="-350" y="350"/><use xlink:href="#L1_23" x="0" y="350"/><use xlink:href="#L1_23" x="350" y="350"/></pattern><rect x="0" y="0" width="100%" height="100%" fill="url(#pattern_L1_23)"/></g><g fi:class="KUsePattern"><pattern id="pattern_L1_24" width="350" height="350" patternUnits="userSpaceOnUse"><use xlink:href="#L1_24" x="-350" y="-350"/><use xlink:href="#L1_24" x="0" y="-350"/><use xlink:href="#L1_24" x="350" y="-350"/><use xlink:href="#L1_24" x="-350" y="0"/><use xlink:href="#L1_24" x="0" y="0"/><use xlink:href="#L1_24" x="350" y="0"/><use xlink:href="#L1_24" x="-350" y="350"/><use xlink:href="#L1_24" x="0" y="350"/><use xlink:href="#L1_24" x="350" y="350"/></pattern><rect x="0" y="0" width="100%" height="100%" fill="url(#pattern_L1_24)"/></g><g fi:class="KUsePattern"><pattern id="pattern_L1_25" width="350" height="350" patternUnits="userSpaceOnUse"><use xlink:href="#L1_25" x="-350" y="-350"/><use xlink:href="#L1_25" x="0" y="-350"/><use xlink:href="#L1_25" x="350" y="-350"/><use xlink:href="#L1_25" x="-350" y="0"/><use xlink:href="#L1_25" x="0" y="0"/><use xlink:href="#L1_25" x="350" y="0"/><use xlink:href="#L1_25" x="-350" y="350"/><use xlink:href="#L1_25" x="0" y="350"/><use xlink:href="#L1_25" x="350" y="350"/></pattern><rect x="0" y="0" width="100%" height="100%" fill="url(#pattern_L1_25)"/></g><g fi:class="KUsePattern"><pattern id="pattern_L1_27" width="350" height="350" patternUnits="userSpaceOnUse"><use xlink:href="#L1_27" x="-350" y="-350"/><use xlink:href="#L1_27" x="0" y="-350"/><use xlink:href="#L1_27" x="350" y="-350"/><use xlink:href="#L1_27" x="-350" y="0"/><use xlink:href="#L1_27" x="0" y="0"/><use xlink:href="#L1_27" x="350" y="0"/><use xlink:href="#L1_27" x="-350" y="350"/><use xlink:href="#L1_27" x="0" y="350"/><use xlink:href="#L1_27" x="350" y="350"/></pattern><rect x="0" y="0" width="100%" height="100%" fill="url(#pattern_L1_27)"/></g></svg>